<svg xmlns="http://www.w3.org/2000/svg" xmlns:xlink="http://www.w3.org/1999/xlink" version="1.1" x="0px" y="0px" viewBox="0 0 100 125" enable-background="new 0 0 100 100" xml:space="preserve"><g><path d="M48.058,68.685V57.259h1.125v11.426c0,0.158,0.447,1.689,0.531,1.822l11.812,19.688c2.43,3.789,8.113,0.145,5.682-3.643   L55.933,67.697V50.615c0-0.004-0.002-0.008-0.002-0.012l0.016-3.018l0.061-14.068c0.004-1.004-0.205-1.863-0.549-2.6   c-0.238-0.828-0.783-1.506-1.543-1.883c-2.01-1.518-5.018-1.529-7.039-0.021c-0.512,0.227-0.988,0.549-1.318,1.053l-1.17,1.783   c-2.779-2.068-5.033-3.748-5.033-3.748c-0.133-0.1-0.287-0.129-0.428-0.201l0.486-2.441c0.092-0.457-0.207-0.9-0.664-0.992   c-0.457-0.09-0.9,0.207-0.99,0.664l-0.479,2.41c-0.83,0.074-1.629,0.459-2.164,1.18c-1,1.342-0.725,3.24,0.619,4.24l0.406,0.303   l-3.186,16.014l-3.479,5.303c-0.9,1.371-0.527,3.195,0.807,4.131c0.023,0.018,0.037,0.047,0.062,0.064   c0.209,0.135,0.443,0.186,0.666,0.266l-0.092,0.463l-2.656,13.361c0,0-4.816-0.963-4.979-0.939   c-0.51,0.068-0.973,0.359-1.072,0.883c-0.049,0.234,0,0.459,0.09,0.662L16.7,88.421l1.68,0.332l5.424-14.482l1.275,0.254   L20.876,89.25l1.66,0.332l4.201-14.727l1.289,0.217L25.04,90.078l1.154,0.23l0.504,0.1l2.977-14.969l1.283,0.256l-1.754,15.213   l1.662,0.33l1.754-15.213l1.271,0.254l-0.529,15.455l1.678,0.334l0.541-15.814c0.227-0.16,0.398-0.4,0.457-0.695   c0.119-0.596-0.26-1.176-0.848-1.307c-1.926-0.428-5.271-1.057-5.271-1.057l2.789-14.021c0.727-0.174,1.395-0.598,1.836-1.271   l10.174-15.508l-0.066,14.865h0.014v8.895L44.651,91.74c0,0,1.701,0.008,3.389,0.008s3.375-1.125,3.375-3.375V75.527   c-1.541-2.566-2.654-4.424-2.65-4.416C48.567,70.798,48.058,69.052,48.058,68.685z M40.466,37.828l-5.041,7.686l2.215-11.135   l1.029,0.768c0.066,0.018,0.127,0,0.193,0.049l12.086,9.188c0.598,0.453-0.08,1.35-0.68,0.896L40.466,37.828z"/><path d="M51.722,25.789c2.84,0,5.146-2.791,5.146-6.223s-2.307-6.223-5.146-6.223c-2.838,0-5.145,2.791-5.145,6.223   S48.884,25.789,51.722,25.789z M51.722,15.031c1.908,0,3.459,2.035,3.459,4.535s-1.551,4.535-3.459,4.535   c-1.906,0-3.457-2.035-3.457-4.535S49.815,15.031,51.722,15.031z"/><path d="M15.118,81.533c0.146,0.074,0.318,0.082,0.473,0.018c0.154-0.062,0.268-0.191,0.32-0.348   c0.018-0.062,0.312-1.006,0.312-2.242c0-0.758-0.109-1.623-0.459-2.467c-0.922-2.225-3.131-3.383-3.227-3.432   c-0.146-0.074-0.318-0.082-0.473-0.02c-0.15,0.062-0.268,0.189-0.32,0.346c-0.031,0.102-0.787,2.49,0.137,4.713   C12.8,80.326,15.024,81.484,15.118,81.533z"/><path d="M42.708,81.566c-0.105,0.01-2.596,0.236-4.297,1.938s-1.924,4.186-1.934,4.291c0,0.016-0.002,0.031-0.002,0.047   c0,0.148,0.059,0.291,0.164,0.396c0.115,0.117,0.277,0.176,0.443,0.162c0.105-0.006,2.598-0.223,4.301-1.926   c1.703-1.699,1.924-4.197,1.932-4.303c0.014-0.164-0.049-0.326-0.164-0.443C43.034,81.611,42.872,81.552,42.708,81.566z"/><path d="M83.919,83.82c-0.105,0.01-2.594,0.236-4.293,1.938c-0.119,0.117-0.213,0.246-0.316,0.371c-0.805-0.467-2.016-1-3.404-1   c-2.406-0.002-4.326,1.609-4.408,1.678c-0.125,0.105-0.197,0.264-0.197,0.43c0,0.164,0.074,0.32,0.201,0.428   c0.08,0.068,2,1.666,4.404,1.666c0.721,0,1.387-0.15,1.984-0.354c-0.154,0.6-0.195,1.031-0.199,1.072c0,0.016,0,0.031,0,0.047   c0,0.148,0.057,0.291,0.162,0.396c0.117,0.117,0.279,0.178,0.443,0.164c0.105-0.008,2.598-0.225,4.303-1.926   c1.701-1.703,1.92-4.199,1.93-4.305c0.012-0.164-0.049-0.326-0.166-0.441C84.247,83.865,84.083,83.806,83.919,83.82z"/><path d="M15.056,87.664c0.127-0.107,0.201-0.264,0.201-0.428c0-0.166-0.072-0.322-0.197-0.43c-0.008-0.006-0.045-0.037-0.08-0.062   c-0.055-0.482-0.387-2.646-1.924-4.184c-1.701-1.703-4.189-1.926-4.295-1.936c-0.162-0.014-0.324,0.045-0.441,0.162   c-0.115,0.115-0.178,0.279-0.164,0.443c0.008,0.1,0.215,2.289,1.641,3.965c-1.988,0.305-3.479,1.551-3.549,1.611   c-0.125,0.105-0.197,0.264-0.197,0.43c0,0.164,0.074,0.32,0.201,0.428c0.08,0.068,2,1.666,4.404,1.666   c1.732,0,3.199-0.824,3.92-1.312c0.008-0.006,0.016-0.01,0.021-0.016C14.866,87.818,15.034,87.683,15.056,87.664z"/><path d="M93.81,86.806c-0.082-0.068-1.998-1.678-4.404-1.678c-2.406-0.002-4.326,1.609-4.408,1.678   c-0.125,0.105-0.197,0.264-0.197,0.43c0,0.164,0.074,0.32,0.201,0.428c0.08,0.068,2,1.666,4.404,1.666s4.32-1.598,4.4-1.666   c0.127-0.107,0.201-0.264,0.201-0.428C94.007,87.07,93.935,86.914,93.81,86.806z"/><path d="M15.63,66.74c0.152,0.062,0.326,0.055,0.471-0.02c0.094-0.049,2.316-1.201,3.236-3.424c0.92-2.225,0.17-4.615,0.137-4.715   c-0.051-0.158-0.17-0.285-0.32-0.348c-0.152-0.064-0.326-0.057-0.473,0.02c-0.094,0.049-2.305,1.211-3.227,3.434   c-0.92,2.223-0.176,4.604-0.145,4.703C15.36,66.548,15.476,66.675,15.63,66.74z"/><path d="M42.7,79.419c0.162,0.014,0.326-0.045,0.441-0.162c0.117-0.115,0.178-0.279,0.166-0.441c-0.01-0.105-0.225-2.6-1.928-4.303   c-1.701-1.699-4.197-1.92-4.303-1.928c-0.164-0.016-0.326,0.045-0.443,0.164c-0.117,0.115-0.176,0.277-0.16,0.443   c0.008,0.105,0.232,2.592,1.934,4.293C40.11,79.187,42.595,79.412,42.7,79.419z"/><path d="M73.378,74.697c0.041-0.08,0.062-0.168,0.062-0.256c0-0.072-0.014-0.146-0.045-0.215c-0.061-0.152-0.188-0.27-0.344-0.32   c-0.102-0.033-2.486-0.785-4.709,0.135c-2.225,0.92-3.381,3.141-3.43,3.234c-0.076,0.146-0.082,0.32-0.02,0.473   c0.064,0.154,0.193,0.27,0.35,0.32c0.1,0.031,2.484,0.773,4.707-0.146C72.173,77.003,73.331,74.792,73.378,74.697z"/><path d="M9.675,77.98c0.148,0.074,0.322,0.082,0.473,0.02c0.152-0.062,0.271-0.189,0.322-0.346   c0.031-0.102,0.785-2.486-0.135-4.711c-0.918-2.223-3.143-3.383-3.234-3.432c-0.15-0.074-0.32-0.08-0.475-0.018   s-0.268,0.191-0.32,0.35c-0.031,0.1-0.773,2.486,0.146,4.709S9.583,77.931,9.675,77.98z"/></g><text x="0" y="115" fill="#000000" font-size="5px" font-weight="bold" font-family="'Helvetica Neue', Helvetica, Arial-Unicode, Arial, Sans-serif">Created by Jems Mayor</text><text x="0" y="120" fill="#000000" font-size="5px" font-weight="bold" font-family="'Helvetica Neue', Helvetica, Arial-Unicode, Arial, Sans-serif">from the Noun Project</text></svg>